<svg width="16" height="16" viewBox="0 0 16 16" fill="none" xmlns="http://www.w3.org/2000/svg">
<path d="M7.75 3.08301V13.9719" stroke="#475366" stroke-width="1.5" stroke-linecap="round" stroke-linejoin="round"/>
<path d="M1.45 12.4167C1.26435 12.4167 1.0863 12.3347 0.955025 12.1889C0.82375 12.043 0.75 11.8452 0.75 11.6389V1.52778C0.75 1.3215 0.82375 1.12367 0.955025 0.977806C1.0863 0.831944 1.26435 0.75 1.45 0.75H4.95C5.69261 0.75 6.4048 1.07778 6.9299 1.66122C7.455 2.24467 7.75 3.03599 7.75 3.86111C7.75 3.03599 8.045 2.24467 8.5701 1.66122C9.0952 1.07778 9.80739 0.75 10.55 0.75H14.05C14.2357 0.75 14.4137 0.831944 14.545 0.977806C14.6763 1.12367 14.75 1.3215 14.75 1.52778V11.6389C14.75 11.8452 14.6763 12.043 14.545 12.1889C14.4137 12.3347 14.2357 12.4167 14.05 12.4167H9.85C9.29304 12.4167 8.7589 12.6625 8.36508 13.1001C7.97125 13.5377 7.75 14.1312 7.75 14.75C7.75 14.1312 7.52875 13.5377 7.13492 13.1001C6.7411 12.6625 6.20695 12.4167 5.65 12.4167H1.45Z" stroke="#475366" stroke-width="1.5" stroke-linecap="round" stroke-linejoin="round"/>
</svg>
